<svg version="1.1" id="Layer_1" xmlns="http://www.w3.org/2000/svg" xmlns:xlink="http://www.w3.org/1999/xlink" x="0px" y="0px"
	 width="100%" viewBox="0 0 500 500" enable-background="new 0 0 500 500" xml:space="preserve">
<path fill="#000000" opacity="1.000000" stroke="none" 
	d="
M267.000000,501.000000 
	C178.000015,501.000000 89.500046,501.000000 1.000047,501.000000 
	C1.000032,334.333405 1.000032,167.666794 1.000016,1.000137 
	C167.666565,1.000091 334.333130,1.000091 500.999756,1.000046 
	C500.999847,167.666519 500.999847,334.333038 500.999939,500.999786 
	C423.166656,501.000000 345.333344,501.000000 267.000000,501.000000 
M217.147049,222.846451 
	C217.147049,222.846451 217.092087,222.811905 216.928345,222.371475 
	C216.735352,222.092560 216.469421,221.945282 216.106415,221.890182 
	C216.106415,221.890182 216.061356,221.879608 216.103149,221.209686 
	C215.414856,220.512573 214.726562,219.815460 213.504089,219.119766 
	C213.344086,219.041656 213.184082,218.963562 212.739899,218.217484 
	C207.210861,215.562164 201.681900,212.898941 195.537933,218.206955 
	C195.353546,218.170258 195.169174,218.133575 194.353394,217.946472 
	C193.882645,218.566833 193.411896,219.187180 192.836151,219.839859 
	C192.836151,219.839859 192.745026,219.901215 192.097122,219.952408 
	C191.793381,220.659393 191.489655,221.366364 190.827759,222.714005 
	C189.907974,225.504318 188.988174,228.294647 187.957306,231.664886 
	C188.251083,232.120956 188.544876,232.577011 189.107513,233.420853 
	C189.107513,233.420853 189.296371,233.853271 189.092957,234.624847 
	C189.354324,235.879776 189.332809,237.290695 189.924423,238.363495 
	C193.020508,243.977676 200.328735,246.907059 207.600586,245.619583 
	C213.992645,244.487869 218.884613,239.049210 219.942337,231.190689 
	C219.276840,228.786850 218.611359,226.383026 217.925690,223.489609 
	C217.775986,223.167831 217.527115,222.972275 217.147049,222.846451 
M322.883148,228.876282 
	C322.883148,228.876282 322.815308,228.934250 322.375763,229.013153 
	C322.087646,229.171295 321.937775,229.414642 321.840881,229.831741 
	C321.840881,229.831741 321.783783,229.940674 321.065826,230.137131 
	C317.193756,233.580383 318.817688,237.729980 319.998047,241.505676 
	C321.126648,245.115601 324.361298,246.142838 327.962036,246.058960 
	C332.599152,245.950928 337.239471,245.954132 341.874054,245.787567 
	C342.957367,245.748611 344.928467,245.289429 344.958160,244.905182 
	C345.290497,240.602997 345.322418,236.277634 345.550842,231.242676 
	C345.578491,230.519913 345.606171,229.797134 345.840851,228.385696 
	C345.838287,227.908554 345.835754,227.431412 345.900909,226.188843 
	C344.325562,223.357910 343.410889,219.021744 341.048187,217.984695 
	C334.550323,215.132645 327.531921,215.140610 320.706451,218.714355 
	C322.295654,223.010483 324.056244,225.906342 329.375305,224.027130 
	C331.259491,223.361465 333.767151,224.460632 335.990173,224.754105 
	C335.932068,225.563477 335.873962,226.372849 335.815857,227.182236 
	C331.874146,227.503448 327.932434,227.824677 323.534851,228.168777 
	C323.234924,228.303925 323.046234,228.531387 322.883148,228.876282 
M303.314606,195.904831 
	C303.314606,195.904831 302.916565,196.028320 302.232788,196.254456 
	C298.791168,198.486038 295.352417,200.722092 291.906982,202.947754 
	C289.408051,204.561920 287.073456,206.678696 284.338470,207.596207 
	C282.353668,208.262054 279.833557,207.332184 277.018341,207.062744 
	C273.451050,202.329041 272.003571,202.362350 268.706665,208.079697 
	C265.851288,206.674362 261.990662,205.779480 261.324463,209.559372 
	C260.840057,212.307861 260.588379,212.986893 258.026398,213.002426 
	C257.069092,213.008255 255.289780,213.958893 255.293503,214.468445 
	C255.324890,218.761337 251.864670,218.977509 248.521454,219.754013 
	C246.007690,216.631226 242.727646,215.061783 238.740204,215.232834 
	C235.227478,215.383514 231.706192,216.118744 228.221512,215.943405 
	C223.722778,215.717072 221.641449,217.415726 221.930740,221.905045 
	C222.376144,228.817307 222.667603,235.749222 223.481232,242.618683 
	C223.620972,243.798431 226.131424,245.641205 227.369110,245.509430 
	C228.934921,245.342682 231.368713,243.634155 231.580490,242.297806 
	C232.169266,238.582611 231.802017,234.715927 231.919205,230.140305 
	C232.142609,226.964081 233.573761,224.016968 236.838898,224.489471 
	C238.447845,224.722321 239.724274,228.002686 240.906464,230.045654 
	C241.345261,230.803970 241.084656,231.967026 241.007782,233.830750 
	C241.337021,236.586700 241.799698,239.334824 241.961792,242.100571 
	C242.164597,245.561050 244.284607,245.898376 247.061462,245.798538 
	C250.248825,245.683929 250.708008,243.656555 250.896393,241.138077 
	C251.176361,237.394791 251.598099,233.662109 252.741653,229.976578 
	C256.090881,230.198456 257.753754,232.182922 256.931702,235.264526 
	C255.880905,239.203674 258.202637,240.059738 261.011658,240.822266 
	C261.944000,241.075378 263.601166,240.999115 263.748047,241.454025 
	C265.962463,248.313049 269.548157,245.887222 272.003265,243.664001 
	C274.927704,244.098160 276.910461,245.042908 278.190735,244.455811 
	C281.507111,242.935089 284.513947,240.739471 286.819244,239.320999 
	C287.625885,236.818420 287.672455,234.233368 288.969177,233.163452 
	C291.596680,230.995483 291.682373,228.962997 290.698059,226.068710 
	C290.004608,224.029709 290.044189,221.741409 290.001312,219.117401 
	C291.348785,218.103699 292.696259,217.090012 294.469696,216.662857 
	C296.319061,217.097229 298.168396,217.531601 300.017883,218.905319 
	C300.480560,224.857697 300.943237,230.810074 301.207275,237.619858 
	C301.005249,240.201599 300.803223,242.783356 300.600647,245.365097 
	C309.020355,246.880020 310.034424,246.013260 309.957855,237.311035 
	C309.950623,236.486542 309.805481,235.663254 309.793152,233.925522 
	C309.832092,229.798935 310.152069,225.650482 309.833282,221.551712 
	C309.493713,217.185104 311.068481,215.417175 315.425934,215.868607 
	C318.756592,216.213623 320.870422,214.903290 320.815277,210.384293 
	C319.055939,209.601303 317.330597,208.251053 315.530762,208.143127 
	C310.408508,207.835999 305.255859,208.035324 300.611603,208.035324 
	C302.285492,203.994781 303.678925,200.631241 305.750244,197.018356 
	C309.917267,194.096802 314.084290,191.175262 318.251343,188.253708 
	C317.927612,187.765442 317.603882,187.277176 317.280151,186.788925 
	C312.193451,188.901779 307.136383,191.063156 303.314606,195.904831 
M169.184509,216.227524 
	C169.106110,224.947983 168.947266,233.669632 169.076889,242.387009 
	C169.089493,243.234970 170.883423,244.056427 172.632721,244.875214 
	C177.152557,244.904358 178.234436,241.664978 178.957840,238.151428 
	C179.710236,234.497147 180.379059,230.825668 181.757324,226.894363 
	C183.528137,226.246002 185.298935,225.597641 187.777863,224.518524 
	C187.777863,221.802933 187.777863,219.087357 187.777863,216.006058 
	C181.508926,216.006058 175.784607,216.006058 169.184509,216.227524 
M281.684906,260.732941 
	C281.531708,260.620392 281.378479,260.507812 281.576202,259.880005 
	C281.777130,259.213654 281.978088,258.547302 282.179047,257.880951 
	C278.773132,257.149597 275.258057,255.521957 271.989685,255.919998 
	C268.141541,256.388611 266.351807,259.797363 265.977020,263.872375 
	C265.527496,268.760193 268.472900,272.190857 272.027069,273.314117 
	C275.096985,274.284363 279.667725,273.256714 282.531311,271.454193 
	C286.379883,269.031647 285.688293,263.354126 281.684906,260.732941 
M114.765961,217.692810 
	C119.271339,214.354065 122.773094,216.952881 126.272247,219.626770 
	C129.275131,221.921448 131.405792,220.009705 132.732925,217.704758 
	C133.511063,216.353271 133.666946,213.134521 132.931671,212.689163 
	C130.159454,211.010117 126.993416,209.620422 123.811584,209.075363 
	C120.302170,208.474167 116.613335,208.915695 113.002640,208.911469 
	C107.992844,208.905609 105.065720,211.758423 102.962463,216.781876 
	C99.477592,223.059097 98.386520,229.456665 101.983795,236.820862 
	C104.052399,245.113998 121.854576,249.386536 130.663559,242.778961 
	C133.337967,240.772919 134.756088,239.164993 132.503769,235.935501 
	C130.567398,233.158966 128.930786,233.039764 125.983704,234.794495 
	C118.619202,239.179474 118.510689,238.968079 111.852478,233.585327 
	C111.379333,233.202789 110.603661,233.194458 109.919914,232.099686 
	C110.325737,227.082718 108.417221,221.383942 114.765961,217.692810 
M371.988434,232.249664 
	C367.824402,229.705048 363.660400,227.160416 358.373199,223.929428 
	C361.034668,223.757095 362.985382,223.010727 364.151855,223.664215 
	C368.822052,226.280594 371.078400,224.273453 373.001068,219.145645 
	C368.988983,217.768539 365.222015,216.163223 361.296143,215.216782 
	C357.452271,214.290115 351.641602,218.070618 350.742126,221.556610 
	C348.819336,229.008850 355.104980,235.817856 363.144531,235.431061 
	C363.039246,236.040573 362.932098,237.182129 362.828949,237.181763 
	C360.308716,237.172897 357.626801,237.550308 355.308716,236.809952 
	C352.173035,235.808441 349.681396,236.471893 348.770782,239.210648 
	C348.431671,240.230652 350.957977,242.423203 352.465088,243.756027 
	C353.392303,244.576035 354.827148,245.036911 356.096771,245.217178 
	C361.186615,245.939789 366.428802,246.760498 370.574127,242.620514 
	C373.646454,239.552094 374.216492,234.905060 371.988434,232.249664 
M393.274292,216.957993 
	C391.223969,219.307251 389.173645,221.656525 386.204132,225.058975 
	C386.038086,221.785477 385.943726,219.926102 386.018005,217.158447 
	C385.959259,214.494965 386.351837,211.706009 385.660309,209.218445 
	C385.288269,207.880188 383.142426,206.377991 381.641388,206.189651 
	C380.039612,205.988693 376.962769,206.995361 376.781586,207.917313 
	C376.131470,211.226028 376.433411,214.721832 376.292999,219.057693 
	C376.608154,223.991226 376.923309,228.924744 377.061279,234.720398 
	C376.686554,238.234726 376.311829,241.749054 375.939575,245.240372 
	C384.291351,246.268143 384.233337,246.253967 386.056763,238.791397 
	C386.357971,237.558777 387.418762,236.511749 388.433044,234.892792 
	C390.930664,238.505127 392.562439,241.821548 395.065948,244.233002 
	C397.903503,246.966171 401.457489,246.148712 405.697174,244.383026 
	C402.425079,240.146133 399.672913,236.582489 396.764313,232.320389 
	C396.220551,230.841187 395.676788,229.362000 395.303284,228.345871 
	C396.702881,226.401093 397.912659,224.720108 399.813446,223.012787 
	C401.462402,221.212555 403.111359,219.412323 404.760284,217.612091 
	C404.543060,217.037033 404.325836,216.461990 404.108582,215.886948 
	C400.748199,216.283371 397.387817,216.679794 393.274292,216.957993 
M146.969376,216.218323 
	C146.653656,213.471161 147.177963,210.102600 145.752853,208.176102 
	C144.639725,206.671341 141.106323,206.956940 138.648361,206.446991 
	C138.404053,209.294830 138.159744,212.142685 138.076935,215.750092 
	C137.752411,219.846191 137.427887,223.942307 136.955475,228.929718 
	C137.061249,233.674942 137.077347,238.425385 137.353958,243.160629 
	C137.404816,244.031326 138.341476,245.297165 139.159851,245.602951 
	C144.140488,247.464005 147.347672,244.850311 146.764023,239.577881 
	C146.529114,237.455917 146.279312,235.335602 146.608292,232.663498 
	C146.705490,232.023560 146.646118,231.302887 146.927261,230.757812 
	C148.085220,228.512650 149.119308,224.650131 150.615784,224.446548 
	C154.054001,223.978867 155.643631,227.118713 156.053131,230.452332 
	C156.152481,231.261246 156.186615,232.078140 156.061356,233.812469 
	C156.105743,236.604919 155.777527,239.476654 156.347931,242.157166 
	C156.643799,243.547653 158.664520,245.690308 159.667770,245.566254 
	C161.473282,245.343002 164.206635,243.964493 164.585281,242.544174 
	C165.575516,238.829910 165.503754,234.832520 165.579285,230.206192 
	C165.386139,228.941528 165.090851,227.682678 165.018631,226.411148 
	C164.786362,222.320816 163.588333,218.469330 159.232193,217.607788 
	C155.212494,216.812805 150.953888,217.225830 146.969376,216.218323 
M329.500000,261.974304 
	C317.393799,261.974304 305.287598,261.974304 293.181396,261.974304 
	C292.916870,262.460388 292.652374,262.946472 292.387848,263.432587 
	C293.518494,264.277252 294.574280,265.690918 295.794922,265.851501 
	C298.576111,266.217377 301.438141,265.969635 304.267334,265.969574 
	C336.386902,265.968811 368.506470,265.973724 400.626038,265.954956 
	C403.092224,265.953491 406.512299,266.710571 404.362854,261.976837 
	C379.735901,261.976837 355.117950,261.976837 329.500000,261.974304 
M166.500000,261.968048 
	C144.060791,261.968048 121.621590,261.968048 99.234177,261.968048 
	C99.234177,263.540710 99.234177,264.612091 99.234177,265.724182 
	C136.245911,265.724182 172.990356,265.724182 209.734818,265.724182 
	C209.973862,265.314911 210.212906,264.905640 210.451965,264.496338 
	C209.284225,263.653687 208.142868,262.128876 206.944351,262.082520 
	C200.633133,261.838562 194.307510,261.967804 187.986877,261.967651 
	C181.157913,261.967499 174.328964,261.967499 166.500000,261.968048 
M242.542816,270.703278 
	C244.421967,270.091797 246.301102,269.480316 248.891037,268.637543 
	C251.060837,270.164581 252.492767,275.511932 257.433990,273.568115 
	C256.689880,271.200989 254.780426,268.448395 255.448273,266.656158 
	C257.883942,260.119873 257.774261,258.094788 251.790634,256.662811 
	C248.861160,255.961761 243.261719,256.625549 242.610733,258.209076 
	C241.202667,261.634247 242.205994,266.050751 242.542816,270.703278 
M230.903107,257.386292 
	C226.803818,256.789154 222.704544,256.192047 217.367950,255.414673 
	C219.843887,261.141846 215.737015,266.805054 220.646454,270.859558 
	C222.588287,269.707550 224.043976,268.188293 225.653397,268.002747 
	C232.602234,267.201721 234.212494,264.491791 230.903107,257.386292 
z"/>
<path fill="#9F9F9F" opacity="1.000000" stroke="none" 
	d="
M289.756470,219.564407 
	C290.044189,221.741409 290.004608,224.029709 290.698059,226.068710 
	C291.682373,228.962997 291.596680,230.995483 288.969177,233.163452 
	C287.672455,234.233368 287.625885,236.818420 286.819244,239.320999 
	C284.513947,240.739471 281.507111,242.935089 278.190735,244.455811 
	C276.910461,245.042908 274.927704,244.098160 272.003265,243.664001 
	C269.548157,245.887222 265.962463,248.313049 263.748047,241.454025 
	C263.601166,240.999115 261.944000,241.075378 261.011658,240.822266 
	C258.202637,240.059738 255.880905,239.203674 256.931702,235.264526 
	C257.753754,232.182922 256.090881,230.198456 252.295868,229.727402 
	C251.675018,229.195435 251.421799,229.039856 250.994354,228.580292 
	C249.703751,225.739700 248.509232,223.330292 247.661926,220.885193 
	C248.391113,220.599701 248.773056,220.349899 249.155014,220.100113 
	C251.864670,218.977509 255.324890,218.761337 255.293503,214.468445 
	C255.289780,213.958893 257.069092,213.008255 258.026398,213.002426 
	C260.588379,212.986893 260.840057,212.307861 261.324463,209.559372 
	C261.990662,205.779480 265.851288,206.674362 268.706665,208.079697 
	C272.003571,202.362350 273.451050,202.329041 277.018341,207.062744 
	C279.833557,207.332184 282.353668,208.262054 284.338470,207.596207 
	C287.073456,206.678696 289.408051,204.561920 291.906982,202.947754 
	C295.352417,200.722092 298.791168,198.486038 302.699738,196.501434 
	C300.234680,200.162155 297.302643,203.575912 294.021484,207.063477 
	C291.110779,210.754593 288.549194,214.371918 285.988312,218.018829 
	C285.989044,218.048416 286.011566,218.012589 286.327148,218.144714 
	C287.680664,218.706009 288.718567,219.135208 289.756470,219.564407 
M275.891235,217.393463 
	C278.018951,215.375549 277.824005,212.248901 275.300415,212.500610 
	C271.598846,212.869827 267.853455,215.069626 264.739014,217.332260 
	C264.031464,217.846313 265.833191,221.814316 266.883636,225.677078 
	C270.652130,222.229752 273.022278,220.061600 275.891235,217.393463 
z"/>
<path fill="#9F9F9F" opacity="1.000000" stroke="none" 
	d="
M330.000000,261.975586 
	C355.117950,261.976837 379.735901,261.976837 404.362854,261.976837 
	C406.512299,266.710571 403.092224,265.953491 400.626038,265.954956 
	C368.506470,265.973724 336.386902,265.968811 304.267334,265.969574 
	C301.438141,265.969635 298.576111,266.217377 295.794922,265.851501 
	C294.574280,265.690918 293.518494,264.277252 292.387848,263.432587 
	C292.652374,262.946472 292.916870,262.460388 293.181396,261.974304 
	C305.287598,261.974304 317.393799,261.974304 330.000000,261.975586 
z"/>
<path fill="#9F9F9F" opacity="1.000000" stroke="none" 
	d="
M167.000000,261.967712 
	C174.328964,261.967499 181.157913,261.967499 187.986877,261.967651 
	C194.307510,261.967804 200.633133,261.838562 206.944351,262.082520 
	C208.142868,262.128876 209.284225,263.653687 210.451965,264.496338 
	C210.212906,264.905640 209.973862,265.314911 209.734818,265.724182 
	C172.990356,265.724182 136.245911,265.724182 99.234177,265.724182 
	C99.234177,264.612091 99.234177,263.540710 99.234177,261.968048 
	C121.621590,261.968048 144.060791,261.968048 167.000000,261.967712 
z"/>
<path fill="#29799C" opacity="1.000000" stroke="none" 
	d="
M289.878906,219.340912 
	C288.718567,219.135208 287.680664,218.706009 286.319794,218.140366 
	C285.996857,218.003906 285.987579,217.989227 285.987579,217.989227 
	C288.549194,214.371918 291.110779,210.754593 294.115356,207.395660 
	C296.345154,208.717911 298.078003,210.578293 299.928467,210.703705 
	C306.846497,211.172531 313.803040,211.073288 320.745117,211.187073 
	C320.870422,214.903290 318.756592,216.213623 315.425934,215.868607 
	C311.068481,215.417175 309.493713,217.185104 309.833282,221.551712 
	C310.152069,225.650482 309.832092,229.798935 309.423340,234.484161 
	C306.504303,235.616013 303.955078,236.189240 301.405884,236.762451 
	C300.943237,230.810074 300.480560,224.857697 300.075867,218.168289 
	C299.158752,215.682693 298.183655,213.934113 296.834045,211.513947 
	C295.538605,213.632065 294.791168,214.854172 294.043732,216.076294 
	C292.696259,217.090012 291.348785,218.103699 289.878906,219.340912 
z"/>
<path fill="#29799C" opacity="1.000000" stroke="none" 
	d="
M137.103378,228.038406 
	C137.427887,223.942307 137.752411,219.846191 138.390427,215.358536 
	C141.736832,214.416290 144.707733,214.100189 146.800507,217.106781 
	C150.953888,217.225830 155.212494,216.812805 159.232193,217.607788 
	C163.588333,218.469330 164.786362,222.320816 165.018631,226.411148 
	C165.090851,227.682678 165.386139,228.941528 165.395081,230.686249 
	C162.551193,233.439926 159.677322,234.601074 156.250732,232.891373 
	C156.186615,232.078140 156.152481,231.261246 156.053131,230.452332 
	C155.643631,227.118713 154.054001,223.978867 150.615784,224.446548 
	C149.119308,224.650131 148.085220,228.512650 146.927261,230.757812 
	C146.646118,231.302887 146.705490,232.023560 145.991196,232.752075 
	C141.990982,232.318420 138.442352,232.081207 137.103378,228.038406 
M146.489731,219.555664 
	C146.489731,219.555664 146.444656,219.470657 146.489731,219.555664 
z"/>
<path fill="#29799C" opacity="1.000000" stroke="none" 
	d="
M399.122437,223.039124 
	C397.912659,224.720108 396.702881,226.401093 395.303284,228.345871 
	C395.676788,229.362000 396.220551,230.841187 396.578430,232.892624 
	C395.376801,233.913895 394.347839,234.775269 393.347504,234.743179 
	C387.973877,234.570847 382.607391,234.176178 377.238434,233.858276 
	C376.923309,228.924744 376.608154,223.991226 376.617126,218.420380 
	C380.066467,212.984940 382.970062,215.144760 385.849426,218.066711 
	C385.943726,219.926102 386.038086,221.785477 386.204132,225.058975 
	C389.173645,221.656525 391.223969,219.307251 393.673828,217.249435 
	C394.073334,217.540878 394.017426,218.005005 393.988617,218.037476 
	C393.959808,218.069962 393.985809,217.976120 394.385040,217.990875 
	C396.489136,218.005646 398.194000,218.005646 400.224823,218.005646 
	C399.740234,220.218216 399.431335,221.628662 399.122437,223.039124 
z"/>
<path fill="#29799C" opacity="1.000000" stroke="none" 
	d="
M345.633850,229.074371 
	C345.606171,229.797134 345.578491,230.519913 345.208923,231.745193 
	C342.369202,233.118530 339.871368,233.989349 337.134827,234.557922 
	C334.285126,234.235458 331.674164,234.215225 328.698853,234.058411 
	C326.094055,232.688416 322.199066,234.177353 321.783783,229.940674 
	C321.783783,229.940674 321.840881,229.831741 322.045044,229.669098 
	C322.461700,229.339279 322.650391,229.148544 322.815308,228.934250 
	C322.815308,228.934250 322.883148,228.876282 323.130859,228.806458 
	C323.618896,228.577347 323.822968,228.380432 323.990723,228.145905 
	C327.932434,227.824677 331.874146,227.503448 335.815857,227.182236 
	C335.873962,226.372849 335.932068,225.563477 335.990173,224.754105 
	C333.767151,224.460632 331.259491,223.361465 329.375305,224.027130 
	C324.056244,225.906342 322.295654,223.010483 320.706451,218.714355 
	C327.531921,215.140610 334.550323,215.132645 341.048187,217.984695 
	C343.410889,219.021744 344.325562,223.357910 345.715881,226.753265 
	C345.565155,227.903259 345.599487,228.488815 345.633850,229.074371 
z"/>
<path fill="#29799C" opacity="1.000000" stroke="none" 
	d="
M363.019531,234.856201 
	C355.104980,235.817856 348.819336,229.008850 350.742126,221.556610 
	C351.641602,218.070618 357.452271,214.290115 361.296143,215.216782 
	C365.222015,216.163223 368.988983,217.768539 373.001068,219.145645 
	C371.078400,224.273453 368.822052,226.280594 364.151855,223.664215 
	C362.985382,223.010727 361.034668,223.757095 358.373199,223.929428 
	C363.660400,227.160416 367.824402,229.705048 371.761047,232.731445 
	C368.695648,233.760895 365.857574,234.308548 363.019531,234.856201 
z"/>
<path fill="#29799C" opacity="1.000000" stroke="none" 
	d="
M188.068390,231.084976 
	C188.988174,228.294647 189.907974,225.504318 191.251450,222.260666 
	C192.031769,221.171967 192.388397,220.536591 192.745026,219.901215 
	C192.745026,219.901215 192.836151,219.839859 193.175537,219.796936 
	C194.004883,219.201630 194.494858,218.649261 194.984833,218.096893 
	C195.169174,218.133575 195.353546,218.170258 196.223068,218.177353 
	C202.280167,218.393661 207.652115,218.639557 213.024078,218.885452 
	C213.184082,218.963562 213.344086,219.041656 213.825134,219.426819 
	C214.784561,220.449127 215.422958,221.164368 216.061356,221.879608 
	C216.061356,221.879608 216.106415,221.890182 216.246948,222.088928 
	C216.586273,222.510880 216.821136,222.685623 217.092087,222.811905 
	C217.092087,222.811905 217.147049,222.846451 217.260010,223.073914 
	C217.544327,223.543884 217.735306,223.769821 217.945877,223.979187 
	C218.611359,226.383026 219.276840,228.786850 219.539047,231.695740 
	C214.540726,234.352737 211.496979,232.930496 209.582001,228.003418 
	C207.099777,226.540771 204.824524,224.125839 202.788589,224.313080 
	C200.817581,224.494354 199.092773,227.352814 197.006012,229.311188 
	C196.073196,234.165787 193.049820,234.647476 189.296371,233.853271 
	C189.296371,233.853271 189.107513,233.420853 188.892578,232.976837 
	C188.474564,232.050201 188.271484,231.567596 188.068390,231.084976 
z"/>
<path fill="#163E62" opacity="1.000000" stroke="none" 
	d="
M321.424805,230.038910 
	C322.199066,234.177353 326.094055,232.688416 328.542175,234.360535 
	C329.044067,235.825195 329.012054,237.360138 329.686707,237.792511 
	C333.405579,240.176010 335.354736,237.306671 337.373535,234.860168 
	C339.871368,233.989349 342.369202,233.118530 345.151123,232.103104 
	C345.322418,236.277634 345.290497,240.602997 344.958160,244.905182 
	C344.928467,245.289429 342.957367,245.748611 341.874054,245.787567 
	C337.239471,245.954132 332.599152,245.950928 327.962036,246.058960 
	C324.361298,246.142838 321.126648,245.115601 319.998047,241.505676 
	C318.817688,237.729980 317.193756,233.580383 321.424805,230.038910 
z"/>
<path fill="#163E62" opacity="1.000000" stroke="none" 
	d="
M189.194672,234.239059 
	C193.049820,234.647476 196.073196,234.165787 197.253540,229.590118 
	C198.447281,236.534409 201.178909,238.467209 206.813690,236.167038 
	C210.764252,234.554398 209.711029,231.170258 209.893677,228.189484 
	C211.496979,232.930496 214.540726,234.352737 219.506927,232.085388 
	C218.884613,239.049210 213.992645,244.487869 207.600586,245.619583 
	C200.328735,246.907059 193.020508,243.977676 189.924423,238.363495 
	C189.332809,237.290695 189.354324,235.879776 189.194672,234.239059 
z"/>
<path fill="#29799C" opacity="1.000000" stroke="none" 
	d="
M247.314697,220.920868 
	C248.509232,223.330292 249.703751,225.739700 250.684143,228.774353 
	C249.659042,231.275620 248.848053,233.151688 247.917175,235.305115 
	C245.692047,234.530045 243.417526,233.737778 241.143021,232.945496 
	C241.084656,231.967026 241.345261,230.803970 240.906464,230.045654 
	C239.724274,228.002686 238.447845,224.722321 236.838898,224.489471 
	C233.573761,224.016968 232.142609,226.964081 231.504333,230.570358 
	C224.823853,233.864639 223.268112,232.803879 223.604996,225.849304 
	C223.677307,224.356689 223.516403,222.685394 224.143173,221.438293 
	C224.675400,220.379318 226.124634,219.269867 227.280121,219.133820 
	C230.429138,218.763000 233.667191,218.595856 236.814316,218.908310 
	C240.346237,219.259003 243.817215,220.223450 247.314697,220.920868 
z"/>
<path fill="#163E62" opacity="1.000000" stroke="none" 
	d="
M109.968658,233.012131 
	C110.603661,233.194458 111.379333,233.202789 111.852478,233.585327 
	C118.510689,238.968079 118.619202,239.179474 125.983704,234.794495 
	C128.930786,233.039764 130.567398,233.158966 132.503769,235.935501 
	C134.756088,239.164993 133.337967,240.772919 130.663559,242.778961 
	C121.854576,249.386536 104.052399,245.113998 102.392456,236.366760 
	C105.551773,235.839050 108.634651,236.586441 109.968658,233.012131 
z"/>
<path fill="#163E62" opacity="1.000000" stroke="none" 
	d="
M377.149841,234.289337 
	C382.607391,234.176178 387.973877,234.570847 393.347504,234.743179 
	C394.347839,234.775269 395.376801,233.913895 396.656647,233.241852 
	C399.672913,236.582489 402.425079,240.146133 405.697174,244.383026 
	C401.457489,246.148712 397.903503,246.966171 395.065948,244.233002 
	C392.562439,241.821548 390.930664,238.505127 388.433044,234.892792 
	C387.418762,236.511749 386.357971,237.558777 386.056763,238.791397 
	C384.233337,246.253967 384.291351,246.268143 375.939575,245.240372 
	C376.311829,241.749054 376.686554,238.234726 377.149841,234.289337 
z"/>
<path fill="#163E62" opacity="1.000000" stroke="none" 
	d="
M247.661926,220.885193 
	C243.817215,220.223450 240.346237,219.259003 236.814316,218.908310 
	C233.667191,218.595856 230.429138,218.763000 227.280121,219.133820 
	C226.124634,219.269867 224.675400,220.379318 224.143173,221.438293 
	C223.516403,222.685394 223.677307,224.356689 223.604996,225.849304 
	C223.268112,232.803879 224.823853,233.864639 231.450928,230.954742 
	C231.802017,234.715927 232.169266,238.582611 231.580490,242.297806 
	C231.368713,243.634155 228.934921,245.342682 227.369110,245.509430 
	C226.131424,245.641205 223.620972,243.798431 223.481232,242.618683 
	C222.667603,235.749222 222.376144,228.817307 221.930740,221.905045 
	C221.641449,217.415726 223.722778,215.717072 228.221512,215.943405 
	C231.706192,216.118744 235.227478,215.383514 238.740204,215.232834 
	C242.727646,215.061783 246.007690,216.631226 248.838226,219.927063 
	C248.773056,220.349899 248.391113,220.599701 247.661926,220.885193 
z"/>
<path fill="#29799C" opacity="1.000000" stroke="none" 
	d="
M109.944290,232.555908 
	C108.634651,236.586441 105.551773,235.839050 102.396378,236.001495 
	C98.386520,229.456665 99.477592,223.059097 103.436157,216.362549 
	C107.079018,214.793243 110.248177,213.643280 114.097069,212.246658 
	C114.097069,215.105789 114.097069,216.513260 114.097069,217.920715 
	C108.417221,221.383942 110.325737,227.082718 109.944290,232.555908 
z"/>
<path fill="#9F9F9F" opacity="1.000000" stroke="none" 
	d="
M242.382904,270.382507 
	C242.205994,266.050751 241.202667,261.634247 242.610733,258.209076 
	C243.261719,256.625549 248.861160,255.961761 251.790634,256.662811 
	C257.774261,258.094788 257.883942,260.119873 255.448273,266.656158 
	C254.780426,268.448395 256.689880,271.200989 257.433990,273.568115 
	C252.492767,275.511932 251.060837,270.164581 248.891037,268.637543 
	C246.301102,269.480316 244.421967,270.091797 242.382904,270.382507 
z"/>
<path fill="#163E62" opacity="1.000000" stroke="none" 
	d="
M363.082031,235.143631 
	C365.857574,234.308548 368.695648,233.760895 371.819305,233.098785 
	C374.216492,234.905060 373.646454,239.552094 370.574127,242.620514 
	C366.428802,246.760498 361.186615,245.939789 356.096771,245.217178 
	C354.827148,245.036911 353.392303,244.576035 352.465088,243.756027 
	C350.957977,242.423203 348.431671,240.230652 348.770782,239.210648 
	C349.681396,236.471893 352.173035,235.808441 355.308716,236.809952 
	C357.626801,237.550308 360.308716,237.172897 362.828949,237.181763 
	C362.932098,237.182129 363.039246,236.040573 363.082031,235.143631 
z"/>
<path fill="#9F9F9F" opacity="1.000000" stroke="none" 
	d="
M282.120514,261.101257 
	C285.688293,263.354126 286.379883,269.031647 282.531311,271.454193 
	C279.667725,273.256714 275.096985,274.284363 272.027069,273.314117 
	C268.472900,272.190857 265.527496,268.760193 265.977020,263.872375 
	C266.351807,259.797363 268.141541,256.388611 271.989685,255.919998 
	C275.258057,255.521957 278.773132,257.149597 282.179047,257.880951 
	C281.978088,258.547302 281.777130,259.213654 281.112305,260.282318 
	C279.089905,260.273468 277.214661,259.120026 276.044586,259.619293 
	C274.130341,260.436096 272.023254,262.029175 271.190460,263.842651 
	C270.140106,266.129913 270.665558,269.132355 273.972137,269.341949 
	C275.705597,269.451843 278.014709,268.431763 279.204193,267.134003 
	C280.649658,265.556976 281.189087,263.149475 282.120514,261.101257 
z"/>
<path fill="#163E62" opacity="1.000000" stroke="none" 
	d="
M181.084427,227.161682 
	C180.379059,230.825668 179.710236,234.497147 178.957840,238.151428 
	C178.234436,241.664978 177.152557,244.904358 172.105011,244.529663 
	C171.059738,242.015289 170.150131,239.856140 170.096313,237.675858 
	C169.918060,230.456696 170.048370,223.229919 170.060272,216.006058 
	C175.784607,216.006058 181.508926,216.006058 187.777863,216.006058 
	C187.777863,219.087357 187.777863,221.802933 187.507935,224.334274 
	C187.375244,220.100311 186.509445,217.846283 181.750137,220.242645 
	C180.529602,220.857178 178.424622,219.774780 176.743179,219.395630 
	C175.362335,219.084244 173.738968,218.032486 172.718796,218.468567 
	C171.773819,218.872513 171.096359,220.781815 170.989136,222.084824 
	C170.759048,224.881042 170.671906,227.764816 171.138260,230.508728 
	C171.353195,231.773376 172.835693,233.368652 174.064194,233.733231 
	C174.963226,234.000015 176.581268,232.698441 177.527695,231.746719 
	C178.881348,230.385529 179.914429,228.705536 181.084427,227.161682 
z"/>
<path fill="#163E62" opacity="1.000000" stroke="none" 
	d="
M114.431519,217.806763 
	C114.097069,216.513260 114.097069,215.105789 114.097069,212.246658 
	C110.248177,213.643280 107.079018,214.793243 103.557549,216.005554 
	C105.065720,211.758423 107.992844,208.905609 113.002640,208.911469 
	C116.613335,208.915695 120.302170,208.474167 123.811584,209.075363 
	C126.993416,209.620422 130.159454,211.010117 132.931671,212.689163 
	C133.666946,213.134521 133.511063,216.353271 132.732925,217.704758 
	C131.405792,220.009705 129.275131,221.921448 126.272247,219.626770 
	C122.773094,216.952881 119.271339,214.354065 114.431519,217.806763 
M127.435204,214.047592 
	C126.238121,213.964005 125.041039,213.880417 123.843956,213.796844 
	C124.545670,215.622009 125.551323,216.713806 126.794472,217.207291 
	C127.670006,217.554855 128.868271,217.089401 129.922440,216.986954 
	C129.305496,216.066574 128.688553,215.146194 127.435204,214.047592 
z"/>
<path fill="#9F9F9F" opacity="1.000000" stroke="none" 
	d="
M230.983917,257.788879 
	C234.212494,264.491791 232.602234,267.201721 225.653397,268.002747 
	C224.043976,268.188293 222.588287,269.707550 220.646454,270.859558 
	C215.737015,266.805054 219.843887,261.141846 217.367950,255.414673 
	C222.704544,256.192047 226.803818,256.789154 230.983917,257.788879 
z"/>
<path fill="#29799C" opacity="1.000000" stroke="none" 
	d="
M181.420868,227.028015 
	C179.914429,228.705536 178.881348,230.385529 177.527695,231.746719 
	C176.581268,232.698441 174.963226,234.000015 174.064194,233.733231 
	C172.835693,233.368652 171.353195,231.773376 171.138260,230.508728 
	C170.671906,227.764816 170.759048,224.881042 170.989136,222.084824 
	C171.096359,220.781815 171.773819,218.872513 172.718796,218.468567 
	C173.738968,218.032486 175.362335,219.084244 176.743179,219.395630 
	C178.424622,219.774780 180.529602,220.857178 181.750137,220.242645 
	C186.509445,217.846283 187.375244,220.100311 187.153870,224.549652 
	C185.298935,225.597641 183.528137,226.246002 181.420868,227.028015 
z"/>
<path fill="#163E62" opacity="1.000000" stroke="none" 
	d="
M137.029419,228.484070 
	C138.442352,232.081207 141.990982,232.318420 145.705200,233.027603 
	C146.279312,235.335602 146.529114,237.455917 146.764023,239.577881 
	C147.347672,244.850311 144.140488,247.464005 139.159851,245.602951 
	C138.341476,245.297165 137.404816,244.031326 137.353958,243.160629 
	C137.077347,238.425385 137.061249,233.674942 137.029419,228.484070 
z"/>
<path fill="#163E62" opacity="1.000000" stroke="none" 
	d="
M241.075409,233.388123 
	C243.417526,233.737778 245.692047,234.530045 247.917175,235.305115 
	C248.848053,233.151688 249.659042,231.275620 250.780243,229.205505 
	C251.421799,229.039856 251.675018,229.195435 251.904800,229.701569 
	C251.598099,233.662109 251.176361,237.394791 250.896393,241.138077 
	C250.708008,243.656555 250.248825,245.683929 247.061462,245.798538 
	C244.284607,245.898376 242.164597,245.561050 241.961792,242.100571 
	C241.799698,239.334824 241.337021,236.586700 241.075409,233.388123 
z"/>
<path fill="#163E62" opacity="1.000000" stroke="none" 
	d="
M156.156036,233.351929 
	C159.677322,234.601074 162.551193,233.439926 165.533112,231.057159 
	C165.503754,234.832520 165.575516,238.829910 164.585281,242.544174 
	C164.206635,243.964493 161.473282,245.343002 159.667770,245.566254 
	C158.664520,245.690308 156.643799,243.547653 156.347931,242.157166 
	C155.777527,239.476654 156.105743,236.604919 156.156036,233.351929 
z"/>
<path fill="#163E62" opacity="1.000000" stroke="none" 
	d="
M320.780212,210.785690 
	C313.803040,211.073288 306.846497,211.172531 299.928467,210.703705 
	C298.078003,210.578293 296.345154,208.717911 294.464447,207.321838 
	C297.302643,203.575912 300.234680,200.162155 303.041626,196.388367 
	C302.916565,196.028320 303.314606,195.904831 303.690063,196.191833 
	C304.401123,196.741806 304.736755,197.004745 305.072357,197.267685 
	C303.678925,200.631241 302.285492,203.994781 300.611603,208.035324 
	C305.255859,208.035324 310.408508,207.835999 315.530762,208.143127 
	C317.330597,208.251053 319.055939,209.601303 320.780212,210.785690 
z"/>
<path fill="#163E62" opacity="1.000000" stroke="none" 
	d="
M385.933716,217.612579 
	C382.970062,215.144760 380.066467,212.984940 376.658386,217.964996 
	C376.433411,214.721832 376.131470,211.226028 376.781586,207.917313 
	C376.962769,206.995361 380.039612,205.988693 381.641388,206.189651 
	C383.142426,206.377991 385.288269,207.880188 385.660309,209.218445 
	C386.351837,211.706009 385.959259,214.494965 385.933716,217.612579 
z"/>
<path fill="#163E62" opacity="1.000000" stroke="none" 
	d="
M146.884949,216.662552 
	C144.707733,214.100189 141.736832,214.416290 138.309662,214.978760 
	C138.159744,212.142685 138.404053,209.294830 138.648361,206.446991 
	C141.106323,206.956940 144.639725,206.671341 145.752853,208.176102 
	C147.177963,210.102600 146.653656,213.471161 146.884949,216.662552 
z"/>
<path fill="#163E62" opacity="1.000000" stroke="none" 
	d="
M301.306580,237.191162 
	C303.955078,236.189240 306.504303,235.616013 309.388916,234.941101 
	C309.805481,235.663254 309.950623,236.486542 309.957855,237.311035 
	C310.034424,246.013260 309.020355,246.880020 300.600891,245.365112 
	C300.803223,242.783356 301.005249,240.201599 301.306580,237.191162 
z"/>
<path fill="#29799C" opacity="1.000000" stroke="none" 
	d="
M305.411316,197.143021 
	C304.736755,197.004745 304.401123,196.741806 303.898071,196.203857 
	C307.136383,191.063156 312.193451,188.901779 317.280151,186.788925 
	C317.603882,187.277176 317.927612,187.765442 318.251343,188.253708 
	C314.084290,191.175262 309.917267,194.096802 305.411316,197.143021 
z"/>
<path fill="#9F9F9F" opacity="1.000000" stroke="none" 
	d="
M169.622391,216.116791 
	C170.048370,223.229919 169.918060,230.456696 170.096313,237.675858 
	C170.150131,239.856140 171.059738,242.015289 171.713898,244.537155 
	C170.883423,244.056427 169.089493,243.234970 169.076889,242.387009 
	C168.947266,233.669632 169.106110,224.947983 169.622391,216.116791 
z"/>
<path fill="#163E62" opacity="1.000000" stroke="none" 
	d="
M394.017426,218.005005 
	C394.017426,218.005005 394.073334,217.540878 394.050385,217.308548 
	C397.387817,216.679794 400.748199,216.283371 404.108582,215.886948 
	C404.325836,216.461990 404.543060,217.037033 404.760284,217.612091 
	C403.111359,219.412323 401.462402,221.212555 399.467957,223.025955 
	C399.431335,221.628662 399.740234,220.218216 400.224823,218.005646 
	C398.194000,218.005646 396.489136,218.005646 394.391602,218.000244 
	C393.998901,217.994858 394.017426,218.005005 394.017426,218.005005 
z"/>
<path fill="#163E62" opacity="1.000000" stroke="none" 
	d="
M212.881989,218.551468 
	C207.652115,218.639557 202.280167,218.393661 196.497421,218.112228 
	C201.681900,212.898941 207.210861,215.562164 212.881989,218.551468 
z"/>
<path fill="#163E62" opacity="1.000000" stroke="none" 
	d="
M294.256714,216.369568 
	C294.791168,214.854172 295.538605,213.632065 296.834045,211.513947 
	C298.183655,213.934113 299.158752,215.682693 300.075806,217.698608 
	C298.168396,217.531601 296.319061,217.097229 294.256714,216.369568 
z"/>
<path fill="#163E62" opacity="1.000000" stroke="none" 
	d="
M216.082245,221.544647 
	C215.422958,221.164368 214.784561,220.449127 214.092209,219.426117 
	C214.726562,219.815460 215.414856,220.512573 216.082245,221.544647 
z"/>
<path fill="#163E62" opacity="1.000000" stroke="none" 
	d="
M192.421082,219.926819 
	C192.388397,220.536591 192.031769,221.171967 191.430527,221.940338 
	C191.489655,221.366364 191.793381,220.659393 192.421082,219.926819 
z"/>
<path fill="#163E62" opacity="1.000000" stroke="none" 
	d="
M194.669113,218.021698 
	C194.494858,218.649261 194.004883,219.201630 193.228027,219.780762 
	C193.411896,219.187180 193.882645,218.566833 194.669113,218.021698 
z"/>
<path fill="#163E62" opacity="1.000000" stroke="none" 
	d="
M188.012848,231.374939 
	C188.271484,231.567596 188.474564,232.050201 188.758148,232.782959 
	C188.544876,232.577011 188.251083,232.120956 188.012848,231.374939 
z"/>
<path fill="#163E62" opacity="1.000000" stroke="none" 
	d="
M345.737335,228.730042 
	C345.599487,228.488815 345.565155,227.903259 345.682007,227.135986 
	C345.835754,227.431412 345.838287,227.908554 345.737335,228.730042 
z"/>
<path fill="#163E62" opacity="1.000000" stroke="none" 
	d="
M322.595520,228.973694 
	C322.650391,229.148544 322.461700,229.339279 322.087708,229.624817 
	C321.937775,229.414642 322.087646,229.171295 322.595520,228.973694 
z"/>
<path fill="#163E62" opacity="1.000000" stroke="none" 
	d="
M217.010223,222.591690 
	C216.821136,222.685623 216.586273,222.510880 216.259018,222.108673 
	C216.469421,221.945282 216.735352,222.092560 217.010223,222.591690 
z"/>
<path fill="#163E62" opacity="1.000000" stroke="none" 
	d="
M217.935791,223.734406 
	C217.735306,223.769821 217.544327,223.543884 217.276001,223.102142 
	C217.527115,222.972275 217.775986,223.167831 217.935791,223.734406 
z"/>
<path fill="#163E62" opacity="1.000000" stroke="none" 
	d="
M323.762787,228.157333 
	C323.822968,228.380432 323.618896,228.577347 323.173645,228.793884 
	C323.046234,228.531387 323.234924,228.303925 323.762787,228.157333 
z"/>
<path fill="#000000" opacity="1.000000" stroke="none" 
	d="
M275.641846,217.643448 
	C273.022278,220.061600 270.652130,222.229752 266.883636,225.677078 
	C265.833191,221.814316 264.031464,217.846313 264.739014,217.332260 
	C267.853455,215.069626 271.598846,212.869827 275.300415,212.500610 
	C277.824005,212.248901 278.018951,215.375549 275.641846,217.643448 
z"/>
<path fill="#29799C" opacity="1.000000" stroke="none" 
	d="
M286.004211,218.008240 
	C286.011566,218.012589 285.989044,218.048416 285.988312,218.018829 
	C285.987579,217.989227 285.996857,218.003906 286.004211,218.008240 
z"/>
<path fill="#163E62" opacity="1.000000" stroke="none" 
	d="
M146.467194,219.513153 
	C146.444656,219.470657 146.489731,219.555664 146.467194,219.513153 
z"/>
<path fill="#163E62" opacity="1.000000" stroke="none" 
	d="
M393.992371,217.985489 
	C393.985809,217.976120 393.959808,218.069962 393.988617,218.037476 
	C394.017426,218.005005 393.998901,217.994858 393.992371,217.985489 
z"/>
<path fill="#000000" opacity="1.000000" stroke="none" 
	d="
M337.134827,234.557922 
	C335.354736,237.306671 333.405579,240.176010 329.686707,237.792511 
	C329.012054,237.360138 329.044067,235.825195 328.906494,234.497131 
	C331.674164,234.215225 334.285126,234.235458 337.134827,234.557922 
z"/>
<path fill="#000000" opacity="1.000000" stroke="none" 
	d="
M209.582001,228.003418 
	C209.711029,231.170258 210.764252,234.554398 206.813690,236.167038 
	C201.178909,238.467209 198.447281,236.534409 197.507355,229.314301 
	C199.092773,227.352814 200.817581,224.494354 202.788589,224.313080 
	C204.824524,224.125839 207.099777,226.540771 209.582001,228.003418 
z"/>
<path fill="#000000" opacity="1.000000" stroke="none" 
	d="
M281.902710,260.917114 
	C281.189087,263.149475 280.649658,265.556976 279.204193,267.134003 
	C278.014709,268.431763 275.705597,269.451843 273.972137,269.341949 
	C270.665558,269.132355 270.140106,266.129913 271.190460,263.842651 
	C272.023254,262.029175 274.130341,260.436096 276.044586,259.619293 
	C277.214661,259.120026 279.089905,260.273468 280.936829,260.539917 
	C281.378479,260.507812 281.531708,260.620392 281.902710,260.917114 
z"/>
<path fill="#29799C" opacity="1.000000" stroke="none" 
	d="
M127.753403,214.136703 
	C128.688553,215.146194 129.305496,216.066574 129.922440,216.986954 
	C128.868271,217.089401 127.670006,217.554855 126.794472,217.207291 
	C125.551323,216.713806 124.545670,215.622009 123.843956,213.796844 
	C125.041039,213.880417 126.238121,213.964005 127.753403,214.136703 
z"/>
</svg>